<?xml version='1.0' encoding='UTF-8'?>
<svg width="27mm" height="27mm" version="1.1" xmlns="http://www.w3.org/2000/svg">
  <rect x="1mm" y="1mm" width="1mm" height="1mm"/><rect x="2mm" y="1mm" width="1mm" height="1mm"/><rect x="3mm" y="1mm" width="1mm" height="1mm"/><rect x="4mm" y="1mm" width="1mm" height="1mm"/><rect x="5mm" y="1mm" width="1mm" height="1mm"/><rect x="6mm" y="1mm" width="1mm" height="1mm"/><rect x="7mm" y="1mm" width="1mm" height="1mm"/><rect x="10mm" y="1mm" width="1mm" height="1mm"/><rect x="14mm" y="1mm" width="1mm" height="1mm"/><rect x="17mm" y="1mm" width="1mm" height="1mm"/><rect x="19mm" y="1mm" width="1mm" height="1mm"/><rect x="20mm" y="1mm" width="1mm" height="1mm"/><rect x="21mm" y="1mm" width="1mm" height="1mm"/><rect x="22mm" y="1mm" width="1mm" height="1mm"/><rect x="23mm" y="1mm" width="1mm" height="1mm"/><rect x="24mm" y="1mm" width="1mm" height="1mm"/><rect x="25mm" y="1mm" width="1mm" height="1mm"/><rect x="1mm" y="2mm" width="1mm" height="1mm"/><rect x="7mm" y="2mm" width="1mm" height="1mm"/><rect x="10mm" y="2mm" width="1mm" height="1mm"/><rect x="11mm" y="2mm" width="1mm" height="1mm"/><rect x="12mm" y="2mm" width="1mm" height="1mm"/><rect x="13mm" y="2mm" width="1mm" height="1mm"/><rect x="16mm" y="2mm" width="1mm" height="1mm"/><rect x="17mm" y="2mm" width="1mm" height="1mm"/><rect x="19mm" y="2mm" width="1mm" height="1mm"/><rect x="25mm" y="2mm" width="1mm" height="1mm"/><rect x="1mm" y="3mm" width="1mm" height="1mm"/><rect x="3mm" y="3mm" width="1mm" height="1mm"/><rect x="4mm" y="3mm" width="1mm" height="1mm"/><rect x="5mm" y="3mm" width="1mm" height="1mm"/><rect x="7mm" y="3mm" width="1mm" height="1mm"/><rect x="9mm" y="3mm" width="1mm" height="1mm"/><rect x="11mm" y="3mm" width="1mm" height="1mm"/><rect x="15mm" y="3mm" width="1mm" height="1mm"/><rect x="17mm" y="3mm" width="1mm" height="1mm"/><rect x="19mm" y="3mm" width="1mm" height="1mm"/><rect x="21mm" y="3mm" width="1mm" height="1mm"/><rect x="22mm" y="3mm" width="1mm" height="1mm"/><rect x="23mm" y="3mm" width="1mm" height="1mm"/><rect x="25mm" y="3mm" width="1mm" height="1mm"/><rect x="1mm" y="4mm" width="1mm" height="1mm"/><rect x="3mm" y="4mm" width="1mm" height="1mm"/><rect x="4mm" y="4mm" width="1mm" height="1mm"/><rect x="5mm" y="4mm" width="1mm" height="1mm"/><rect x="7mm" y="4mm" width="1mm" height="1mm"/><rect x="9mm" y="4mm" width="1mm" height="1mm"/><rect x="11mm" y="4mm" width="1mm" height="1mm"/><rect x="14mm" y="4mm" width="1mm" height="1mm"/><rect x="15mm" y="4mm" width="1mm" height="1mm"/><rect x="16mm" y="4mm" width="1mm" height="1mm"/><rect x="17mm" y="4mm" width="1mm" height="1mm"/><rect x="19mm" y="4mm" width="1mm" height="1mm"/><rect x="21mm" y="4mm" width="1mm" height="1mm"/><rect x="22mm" y="4mm" width="1mm" height="1mm"/><rect x="23mm" y="4mm" width="1mm" height="1mm"/><rect x="25mm" y="4mm" width="1mm" height="1mm"/><rect x="1mm" y="5mm" width="1mm" height="1mm"/><rect x="3mm" y="5mm" width="1mm" height="1mm"/><rect x="4mm" y="5mm" width="1mm" height="1mm"/><rect x="5mm" y="5mm" width="1mm" height="1mm"/><rect x="7mm" y="5mm" width="1mm" height="1mm"/><rect x="9mm" y="5mm" width="1mm" height="1mm"/><rect x="10mm" y="5mm" width="1mm" height="1mm"/><rect x="12mm" y="5mm" width="1mm" height="1mm"/><rect x="17mm" y="5mm" width="1mm" height="1mm"/><rect x="19mm" y="5mm" width="1mm" height="1mm"/><rect x="21mm" y="5mm" width="1mm" height="1mm"/><rect x="22mm" y="5mm" width="1mm" height="1mm"/><rect x="23mm" y="5mm" width="1mm" height="1mm"/><rect x="25mm" y="5mm" width="1mm" height="1mm"/><rect x="1mm" y="6mm" width="1mm" height="1mm"/><rect x="7mm" y="6mm" width="1mm" height="1mm"/><rect x="9mm" y="6mm" width="1mm" height="1mm"/><rect x="11mm" y="6mm" width="1mm" height="1mm"/><rect x="14mm" y="6mm" width="1mm" height="1mm"/><rect x="16mm" y="6mm" width="1mm" height="1mm"/><rect x="19mm" y="6mm" width="1mm" height="1mm"/><rect x="25mm" y="6mm" width="1mm" height="1mm"/><rect x="1mm" y="7mm" width="1mm" height="1mm"/><rect x="2mm" y="7mm" width="1mm" height="1mm"/><rect x="3mm" y="7mm" width="1mm" height="1mm"/><rect x="4mm" y="7mm" width="1mm" height="1mm"/><rect x="5mm" y="7mm" width="1mm" height="1mm"/><rect x="6mm" y="7mm" width="1mm" height="1mm"/><rect x="7mm" y="7mm" width="1mm" height="1mm"/><rect x="9mm" y="7mm" width="1mm" height="1mm"/><rect x="11mm" y="7mm" width="1mm" height="1mm"/><rect x="13mm" y="7mm" width="1mm" height="1mm"/><rect x="15mm" y="7mm" width="1mm" height="1mm"/><rect x="17mm" y="7mm" width="1mm" height="1mm"/><rect x="19mm" y="7mm" width="1mm" height="1mm"/><rect x="20mm" y="7mm" width="1mm" height="1mm"/><rect x="21mm" y="7mm" width="1mm" height="1mm"/><rect x="22mm" y="7mm" width="1mm" height="1mm"/><rect x="23mm" y="7mm" width="1mm" height="1mm"/><rect x="24mm" y="7mm" width="1mm" height="1mm"/><rect x="25mm" y="7mm" width="1mm" height="1mm"/><rect x="9mm" y="8mm" width="1mm" height="1mm"/><rect x="12mm" y="8mm" width="1mm" height="1mm"/><rect x="13mm" y="8mm" width="1mm" height="1mm"/><rect x="15mm" y="8mm" width="1mm" height="1mm"/><rect x="16mm" y="8mm" width="1mm" height="1mm"/><rect x="17mm" y="8mm" width="1mm" height="1mm"/><rect x="1mm" y="9mm" width="1mm" height="1mm"/><rect x="3mm" y="9mm" width="1mm" height="1mm"/><rect x="4mm" y="9mm" width="1mm" height="1mm"/><rect x="5mm" y="9mm" width="1mm" height="1mm"/><rect x="6mm" y="9mm" width="1mm" height="1mm"/><rect x="7mm" y="9mm" width="1mm" height="1mm"/><rect x="13mm" y="9mm" width="1mm" height="1mm"/><rect x="14mm" y="9mm" width="1mm" height="1mm"/><rect x="15mm" y="9mm" width="1mm" height="1mm"/><rect x="16mm" y="9mm" width="1mm" height="1mm"/><rect x="19mm" y="9mm" width="1mm" height="1mm"/><rect x="20mm" y="9mm" width="1mm" height="1mm"/><rect x="21mm" y="9mm" width="1mm" height="1mm"/><rect x="22mm" y="9mm" width="1mm" height="1mm"/><rect x="23mm" y="9mm" width="1mm" height="1mm"/><rect x="1mm" y="10mm" width="1mm" height="1mm"/><rect x="2mm" y="10mm" width="1mm" height="1mm"/><rect x="3mm" y="10mm" width="1mm" height="1mm"/><rect x="6mm" y="10mm" width="1mm" height="1mm"/><rect x="8mm" y="10mm" width="1mm" height="1mm"/><rect x="9mm" y="10mm" width="1mm" height="1mm"/><rect x="10mm" y="10mm" width="1mm" height="1mm"/><rect x="14mm" y="10mm" width="1mm" height="1mm"/><rect x="17mm" y="10mm" width="1mm" height="1mm"/><rect x="24mm" y="10mm" width="1mm" height="1mm"/><rect x="1mm" y="11mm" width="1mm" height="1mm"/><rect x="4mm" y="11mm" width="1mm" height="1mm"/><rect x="5mm" y="11mm" width="1mm" height="1mm"/><rect x="6mm" y="11mm" width="1mm" height="1mm"/><rect x="7mm" y="11mm" width="1mm" height="1mm"/><rect x="14mm" y="11mm" width="1mm" height="1mm"/><rect x="16mm" y="11mm" width="1mm" height="1mm"/><rect x="17mm" y="11mm" width="1mm" height="1mm"/><rect x="18mm" y="11mm" width="1mm" height="1mm"/><rect x="22mm" y="11mm" width="1mm" height="1mm"/><rect x="24mm" y="11mm" width="1mm" height="1mm"/><rect x="25mm" y="11mm" width="1mm" height="1mm"/><rect x="1mm" y="12mm" width="1mm" height="1mm"/><rect x="2mm" y="12mm" width="1mm" height="1mm"/><rect x="8mm" y="12mm" width="1mm" height="1mm"/><rect x="11mm" y="12mm" width="1mm" height="1mm"/><rect x="15mm" y="12mm" width="1mm" height="1mm"/><rect x="16mm" y="12mm" width="1mm" height="1mm"/><rect x="17mm" y="12mm" width="1mm" height="1mm"/><rect x="20mm" y="12mm" width="1mm" height="1mm"/><rect x="25mm" y="12mm" width="1mm" height="1mm"/><rect x="2mm" y="13mm" width="1mm" height="1mm"/><rect x="4mm" y="13mm" width="1mm" height="1mm"/><rect x="6mm" y="13mm" width="1mm" height="1mm"/><rect x="7mm" y="13mm" width="1mm" height="1mm"/><rect x="9mm" y="13mm" width="1mm" height="1mm"/><rect x="10mm" y="13mm" width="1mm" height="1mm"/><rect x="16mm" y="13mm" width="1mm" height="1mm"/><rect x="18mm" y="13mm" width="1mm" height="1mm"/><rect x="19mm" y="13mm" width="1mm" height="1mm"/><rect x="20mm" y="13mm" width="1mm" height="1mm"/><rect x="21mm" y="13mm" width="1mm" height="1mm"/><rect x="23mm" y="13mm" width="1mm" height="1mm"/><rect x="24mm" y="13mm" width="1mm" height="1mm"/><rect x="25mm" y="13mm" width="1mm" height="1mm"/><rect x="1mm" y="14mm" width="1mm" height="1mm"/><rect x="2mm" y="14mm" width="1mm" height="1mm"/><rect x="5mm" y="14mm" width="1mm" height="1mm"/><rect x="6mm" y="14mm" width="1mm" height="1mm"/><rect x="8mm" y="14mm" width="1mm" height="1mm"/><rect x="9mm" y="14mm" width="1mm" height="1mm"/><rect x="11mm" y="14mm" width="1mm" height="1mm"/><rect x="13mm" y="14mm" width="1mm" height="1mm"/><rect x="14mm" y="14mm" width="1mm" height="1mm"/><rect x="17mm" y="14mm" width="1mm" height="1mm"/><rect x="20mm" y="14mm" width="1mm" height="1mm"/><rect x="22mm" y="14mm" width="1mm" height="1mm"/><rect x="24mm" y="14mm" width="1mm" height="1mm"/><rect x="1mm" y="15mm" width="1mm" height="1mm"/><rect x="3mm" y="15mm" width="1mm" height="1mm"/><rect x="4mm" y="15mm" width="1mm" height="1mm"/><rect x="6mm" y="15mm" width="1mm" height="1mm"/><rect x="7mm" y="15mm" width="1mm" height="1mm"/><rect x="8mm" y="15mm" width="1mm" height="1mm"/><rect x="14mm" y="15mm" width="1mm" height="1mm"/><rect x="15mm" y="15mm" width="1mm" height="1mm"/><rect x="16mm" y="15mm" width="1mm" height="1mm"/><rect x="18mm" y="15mm" width="1mm" height="1mm"/><rect x="20mm" y="15mm" width="1mm" height="1mm"/><rect x="21mm" y="15mm" width="1mm" height="1mm"/><rect x="22mm" y="15mm" width="1mm" height="1mm"/><rect x="24mm" y="15mm" width="1mm" height="1mm"/><rect x="25mm" y="15mm" width="1mm" height="1mm"/><rect x="1mm" y="16mm" width="1mm" height="1mm"/><rect x="4mm" y="16mm" width="1mm" height="1mm"/><rect x="5mm" y="16mm" width="1mm" height="1mm"/><rect x="6mm" y="16mm" width="1mm" height="1mm"/><rect x="11mm" y="16mm" width="1mm" height="1mm"/><rect x="13mm" y="16mm" width="1mm" height="1mm"/><rect x="14mm" y="16mm" width="1mm" height="1mm"/><rect x="18mm" y="16mm" width="1mm" height="1mm"/><rect x="19mm" y="16mm" width="1mm" height="1mm"/><rect x="20mm" y="16mm" width="1mm" height="1mm"/><rect x="21mm" y="16mm" width="1mm" height="1mm"/><rect x="25mm" y="16mm" width="1mm" height="1mm"/><rect x="1mm" y="17mm" width="1mm" height="1mm"/><rect x="3mm" y="17mm" width="1mm" height="1mm"/><rect x="7mm" y="17mm" width="1mm" height="1mm"/><rect x="9mm" y="17mm" width="1mm" height="1mm"/><rect x="10mm" y="17mm" width="1mm" height="1mm"/><rect x="11mm" y="17mm" width="1mm" height="1mm"/><rect x="13mm" y="17mm" width="1mm" height="1mm"/><rect x="15mm" y="17mm" width="1mm" height="1mm"/><rect x="16mm" y="17mm" width="1mm" height="1mm"/><rect x="17mm" y="17mm" width="1mm" height="1mm"/><rect x="18mm" y="17mm" width="1mm" height="1mm"/><rect x="19mm" y="17mm" width="1mm" height="1mm"/><rect x="20mm" y="17mm" width="1mm" height="1mm"/><rect x="21mm" y="17mm" width="1mm" height="1mm"/><rect x="23mm" y="17mm" width="1mm" height="1mm"/><rect x="9mm" y="18mm" width="1mm" height="1mm"/><rect x="17mm" y="18mm" width="1mm" height="1mm"/><rect x="21mm" y="18mm" width="1mm" height="1mm"/><rect x="22mm" y="18mm" width="1mm" height="1mm"/><rect x="1mm" y="19mm" width="1mm" height="1mm"/><rect x="2mm" y="19mm" width="1mm" height="1mm"/><rect x="3mm" y="19mm" width="1mm" height="1mm"/><rect x="4mm" y="19mm" width="1mm" height="1mm"/><rect x="5mm" y="19mm" width="1mm" height="1mm"/><rect x="6mm" y="19mm" width="1mm" height="1mm"/><rect x="7mm" y="19mm" width="1mm" height="1mm"/><rect x="10mm" y="19mm" width="1mm" height="1mm"/><rect x="12mm" y="19mm" width="1mm" height="1mm"/><rect x="13mm" y="19mm" width="1mm" height="1mm"/><rect x="17mm" y="19mm" width="1mm" height="1mm"/><rect x="19mm" y="19mm" width="1mm" height="1mm"/><rect x="21mm" y="19mm" width="1mm" height="1mm"/><rect x="23mm" y="19mm" width="1mm" height="1mm"/><rect x="24mm" y="19mm" width="1mm" height="1mm"/><rect x="25mm" y="19mm" width="1mm" height="1mm"/><rect x="1mm" y="20mm" width="1mm" height="1mm"/><rect x="7mm" y="20mm" width="1mm" height="1mm"/><rect x="9mm" y="20mm" width="1mm" height="1mm"/><rect x="10mm" y="20mm" width="1mm" height="1mm"/><rect x="11mm" y="20mm" width="1mm" height="1mm"/><rect x="12mm" y="20mm" width="1mm" height="1mm"/><rect x="15mm" y="20mm" width="1mm" height="1mm"/><rect x="17mm" y="20mm" width="1mm" height="1mm"/><rect x="21mm" y="20mm" width="1mm" height="1mm"/><rect x="22mm" y="20mm" width="1mm" height="1mm"/><rect x="25mm" y="20mm" width="1mm" height="1mm"/><rect x="1mm" y="21mm" width="1mm" height="1mm"/><rect x="3mm" y="21mm" width="1mm" height="1mm"/><rect x="4mm" y="21mm" width="1mm" height="1mm"/><rect x="5mm" y="21mm" width="1mm" height="1mm"/><rect x="7mm" y="21mm" width="1mm" height="1mm"/><rect x="9mm" y="21mm" width="1mm" height="1mm"/><rect x="10mm" y="21mm" width="1mm" height="1mm"/><rect x="12mm" y="21mm" width="1mm" height="1mm"/><rect x="16mm" y="21mm" width="1mm" height="1mm"/><rect x="17mm" y="21mm" width="1mm" height="1mm"/><rect x="18mm" y="21mm" width="1mm" height="1mm"/><rect x="19mm" y="21mm" width="1mm" height="1mm"/><rect x="20mm" y="21mm" width="1mm" height="1mm"/><rect x="21mm" y="21mm" width="1mm" height="1mm"/><rect x="23mm" y="21mm" width="1mm" height="1mm"/><rect x="24mm" y="21mm" width="1mm" height="1mm"/><rect x="25mm" y="21mm" width="1mm" height="1mm"/><rect x="1mm" y="22mm" width="1mm" height="1mm"/><rect x="3mm" y="22mm" width="1mm" height="1mm"/><rect x="4mm" y="22mm" width="1mm" height="1mm"/><rect x="5mm" y="22mm" width="1mm" height="1mm"/><rect x="7mm" y="22mm" width="1mm" height="1mm"/><rect x="9mm" y="22mm" width="1mm" height="1mm"/><rect x="10mm" y="22mm" width="1mm" height="1mm"/><rect x="11mm" y="22mm" width="1mm" height="1mm"/><rect x="13mm" y="22mm" width="1mm" height="1mm"/><rect x="14mm" y="22mm" width="1mm" height="1mm"/><rect x="15mm" y="22mm" width="1mm" height="1mm"/><rect x="17mm" y="22mm" width="1mm" height="1mm"/><rect x="18mm" y="22mm" width="1mm" height="1mm"/><rect x="19mm" y="22mm" width="1mm" height="1mm"/><rect x="21mm" y="22mm" width="1mm" height="1mm"/><rect x="22mm" y="22mm" width="1mm" height="1mm"/><rect x="23mm" y="22mm" width="1mm" height="1mm"/><rect x="24mm" y="22mm" width="1mm" height="1mm"/><rect x="25mm" y="22mm" width="1mm" height="1mm"/><rect x="1mm" y="23mm" width="1mm" height="1mm"/><rect x="3mm" y="23mm" width="1mm" height="1mm"/><rect x="4mm" y="23mm" width="1mm" height="1mm"/><rect x="5mm" y="23mm" width="1mm" height="1mm"/><rect x="7mm" y="23mm" width="1mm" height="1mm"/><rect x="9mm" y="23mm" width="1mm" height="1mm"/><rect x="14mm" y="23mm" width="1mm" height="1mm"/><rect x="15mm" y="23mm" width="1mm" height="1mm"/><rect x="17mm" y="23mm" width="1mm" height="1mm"/><rect x="22mm" y="23mm" width="1mm" height="1mm"/><rect x="23mm" y="23mm" width="1mm" height="1mm"/><rect x="25mm" y="23mm" width="1mm" height="1mm"/><rect x="1mm" y="24mm" width="1mm" height="1mm"/><rect x="7mm" y="24mm" width="1mm" height="1mm"/><rect x="13mm" y="24mm" width="1mm" height="1mm"/><rect x="14mm" y="24mm" width="1mm" height="1mm"/><rect x="16mm" y="24mm" width="1mm" height="1mm"/><rect x="17mm" y="24mm" width="1mm" height="1mm"/><rect x="18mm" y="24mm" width="1mm" height="1mm"/><rect x="19mm" y="24mm" width="1mm" height="1mm"/><rect x="20mm" y="24mm" width="1mm" height="1mm"/><rect x="21mm" y="24mm" width="1mm" height="1mm"/><rect x="22mm" y="24mm" width="1mm" height="1mm"/><rect x="25mm" y="24mm" width="1mm" height="1mm"/><rect x="1mm" y="25mm" width="1mm" height="1mm"/><rect x="2mm" y="25mm" width="1mm" height="1mm"/><rect x="3mm" y="25mm" width="1mm" height="1mm"/><rect x="4mm" y="25mm" width="1mm" height="1mm"/><rect x="5mm" y="25mm" width="1mm" height="1mm"/><rect x="6mm" y="25mm" width="1mm" height="1mm"/><rect x="7mm" y="25mm" width="1mm" height="1mm"/><rect x="9mm" y="25mm" width="1mm" height="1mm"/><rect x="11mm" y="25mm" width="1mm" height="1mm"/><rect x="13mm" y="25mm" width="1mm" height="1mm"/><rect x="15mm" y="25mm" width="1mm" height="1mm"/><rect x="16mm" y="25mm" width="1mm" height="1mm"/><rect x="18mm" y="25mm" width="1mm" height="1mm"/><rect x="19mm" y="25mm" width="1mm" height="1mm"/><rect x="20mm" y="25mm" width="1mm" height="1mm"/><rect x="21mm" y="25mm" width="1mm" height="1mm"/><rect x="22mm" y="25mm" width="1mm" height="1mm"/><rect x="23mm" y="25mm" width="1mm" height="1mm"/><rect x="24mm" y="25mm" width="1mm" height="1mm"/><rect x="25mm" y="25mm" width="1mm" height="1mm"/>
  <style>
    rect { fill: #fd0844; }
  </style>
</svg>
