<?xml version="1.0" encoding="utf-8"?>
<!DOCTYPE svg PUBLIC "-//W3C//DTD SVG 1.1//EN" "http://www.w3.org/Graphics/SVG/1.1/DTD/svg11.dtd">
<svg version="1.1" id="Layer_1" xmlns="http://www.w3.org/2000/svg" xmlns:xlink="http://www.w3.org/1999/xlink" x="0px" y="0px"
width="232px" height="232px" viewBox="0 0 232 232" enable-background="new 0 0 232 232" xml:space="preserve">
<rect x="0" y="0" width="232" height="232" fill="rgb(255,255,255)" /><g transform="translate(16,16)"><g transform="translate(64,0) scale(0.08,0.08)"><g transform="" style="fill: rgb(253, 8, 68);">
<g>
	<path d="M100,34.375V0H34.375C24.87,0,16.764,3.353,10.059,10.059S0,24.87,0,34.375v31.25c0,9.505,3.353,17.611,10.059,24.316
		C16.765,96.646,24.87,100,34.375,100H100V34.375z"/>
</g>
</g></g><g transform="translate(72,0) scale(0.08,0.08)"><g transform="" style="fill: rgb(253, 8, 68);">
<rect width="100" height="100"/>
</g></g><g transform="translate(80,0) scale(0.08,0.08)"><g transform="" style="fill: rgb(253, 8, 68);">
<rect width="100" height="100"/>
</g></g><g transform="translate(88,0) scale(0.08,0.08)"><g transform="" style="fill: rgb(253, 8, 68);">
<rect width="100" height="100"/>
</g></g><g transform="translate(96,0) scale(0.08,0.08)"><g transform="" style="fill: rgb(253, 8, 68);">
<g>
	<path d="M100,34.375c0-9.505-3.354-17.611-10.059-24.316C83.236,3.354,75.13,0,65.625,0H0v100h100V34.375z"/>
</g>
</g></g><g transform="translate(112,0) scale(0.08,0.08)"><g transform="" style="fill: rgb(253, 8, 68);">
<g>
	<path d="M100,65.625c0,9.507-3.355,17.611-10.059,24.316C83.236,96.645,75.132,100,65.625,100h-31.25
		c-9.504,0-17.61-3.355-24.315-10.059C3.354,83.236,0,75.132,0,65.625v-31.25c0-9.504,3.353-17.61,10.059-24.315
		C16.766,3.354,24.871,0,34.375,0h31.25c9.508,0,17.613,3.353,24.316,10.059C96.646,16.766,100,24.871,100,34.375V65.625z"/>
</g>
</g></g><g transform="translate(80,8) scale(0.08,0.08)"><g transform="" style="fill: rgb(253, 8, 68);">
<g>
	<path d="M100,0H0v65.625c0,9.505,3.353,17.611,10.059,24.316C16.765,96.646,24.87,100,34.375,100H100V0z"/>
</g>
</g></g><g transform="translate(88,8) scale(0.08,0.08)"><g transform="" style="fill: rgb(253, 8, 68);">
<rect width="100" height="100"/>
</g></g><g transform="translate(96,8) scale(0.08,0.08)"><g transform="" style="fill: rgb(253, 8, 68);">
<rect width="100" height="100"/>
</g></g><g transform="translate(64,16) scale(0.08,0.08)"><g transform="" style="fill: rgb(253, 8, 68);">
<g>
	<path d="M100,34.375V0H34.375C24.87,0,16.764,3.353,10.059,10.059S0,24.87,0,34.375v31.25c0,9.505,3.353,17.611,10.059,24.316
		C16.765,96.646,24.87,100,34.375,100H100V34.375z"/>
</g>
</g></g><g transform="translate(72,16) scale(0.08,0.08)"><g transform="" style="fill: rgb(253, 8, 68);">
<g>
	<path d="M100,34.375c0-9.505-3.354-17.611-10.059-24.316C83.236,3.354,75.13,0,65.625,0H0v100h100V34.375z"/>
</g>
</g></g><g transform="translate(88,16) scale(0.08,0.08)"><g transform="" style="fill: rgb(253, 8, 68);">
<g>
	<path d="M100,0H0v65.625c0,9.505,3.353,17.611,10.059,24.316C16.765,96.646,24.87,100,34.375,100H100V0z"/>
</g>
</g></g><g transform="translate(96,16) scale(0.08,0.08)"><g transform="" style="fill: rgb(253, 8, 68);">
<rect width="100" height="100"/>
</g></g><g transform="translate(104,16) scale(0.08,0.08)"><g transform="" style="fill: rgb(253, 8, 68);">
<g>
	<path d="M100,34.375c0-9.505-3.354-17.611-10.059-24.316C83.236,3.354,75.13,0,65.625,0H0v100h100V34.375z"/>
</g>
</g></g><g transform="translate(128,16) scale(0.08,0.08)"><g transform="" style="fill: rgb(253, 8, 68);">
<g>
	<path d="M100,34.375c0-9.505-3.354-17.611-10.059-24.316C83.236,3.354,75.13,0,65.625,0h-31.25C24.87,0,16.764,3.353,10.059,10.059
		S0,24.87,0,34.375v31.25c0,0.521,0.065,1.303,0.195,2.344H0V100h100V67.969h-0.195c0.132-1.041,0.195-1.822,0.195-2.344V34.375z"/>
</g>
</g></g><g transform="translate(72,24) scale(0.08,0.08)"><g transform="" style="fill: rgb(253, 8, 68);">
<rect width="100" height="100"/>
</g></g><g transform="translate(104,24) scale(0.08,0.08)"><g transform="" style="fill: rgb(253, 8, 68);">
<rect width="100" height="100"/>
</g></g><g transform="translate(112,24) scale(0.08,0.08)"><g transform="" style="fill: rgb(253, 8, 68);">
<g>
	<path d="M100,34.375c0-9.505-3.354-17.611-10.059-24.316C83.236,3.354,75.13,0,65.625,0H0v100h100V34.375z"/>
</g>
</g></g><g transform="translate(128,24) scale(0.08,0.08)"><g transform="" style="fill: rgb(253, 8, 68);">
<g>
	<path d="M99.805,32.031H100V0H0v32.031h0.195C0.065,33.073,0,33.854,0,34.375v31.25c0,9.505,3.353,17.611,10.059,24.316
		C16.765,96.646,24.87,100,34.375,100h31.25c9.505,0,17.611-3.354,24.316-10.059C96.646,83.236,100,75.13,100,65.625v-31.25
		C100,33.854,99.937,33.073,99.805,32.031z"/>
</g>
</g></g><g transform="translate(72,32) scale(0.08,0.08)"><g transform="" style="fill: rgb(253, 8, 68);">
<rect width="100" height="100"/>
</g></g><g transform="translate(80,32) scale(0.08,0.08)"><g transform="" style="fill: rgb(253, 8, 68);">
<rect width="100" height="100"/>
</g></g><g transform="translate(88,32) scale(0.08,0.08)"><g transform="" style="fill: rgb(253, 8, 68);">
<rect width="100" height="100"/>
</g></g><g transform="translate(96,32) scale(0.08,0.08)"><g transform="" style="fill: rgb(253, 8, 68);">
<rect width="100" height="100"/>
</g></g><g transform="translate(104,32) scale(0.08,0.08)"><g transform="" style="fill: rgb(253, 8, 68);">
<rect width="100" height="100"/>
</g></g><g transform="translate(112,32) scale(0.08,0.08)"><g transform="" style="fill: rgb(253, 8, 68);">
<rect width="100" height="100"/>
</g></g><g transform="translate(64,40) scale(0.08,0.08)"><g transform="" style="fill: rgb(253, 8, 68);">
<g>
	<path d="M100,34.375V0H34.375C24.87,0,16.764,3.353,10.059,10.059S0,24.87,0,34.375V100h100V34.375z"/>
</g>
</g></g><g transform="translate(72,40) scale(0.08,0.08)"><g transform="" style="fill: rgb(253, 8, 68);">
<rect width="100" height="100"/>
</g></g><g transform="translate(80,40) scale(0.08,0.08)"><g transform="" style="fill: rgb(253, 8, 68);">
<rect width="100" height="100"/>
</g></g><g transform="translate(88,40) scale(0.08,0.08)"><g transform="" style="fill: rgb(253, 8, 68);">
<rect width="100" height="100"/>
</g></g><g transform="translate(96,40) scale(0.08,0.08)"><g transform="" style="fill: rgb(253, 8, 68);">
<rect width="100" height="100"/>
</g></g><g transform="translate(112,40) scale(0.08,0.08)"><g transform="" style="fill: rgb(253, 8, 68);">
<rect width="100" height="100"/>
</g></g><g transform="translate(128,40) scale(0.08,0.08)"><g transform="" style="fill: rgb(253, 8, 68);">
<g>
	<path d="M100,34.375c0-9.505-3.354-17.611-10.059-24.316C83.236,3.354,75.13,0,65.625,0h-31.25C24.87,0,16.764,3.353,10.059,10.059
		S0,24.87,0,34.375v31.25c0,0.521,0.065,1.303,0.195,2.344H0V100h100V67.969h-0.195c0.132-1.041,0.195-1.822,0.195-2.344V34.375z"/>
</g>
</g></g><g transform="translate(64,48) scale(0.08,0.08)"><g transform="" style="fill: rgb(253, 8, 68);">
<g>
	<path d="M99.805,32.031H100V0H0v32.031h0.195C0.065,33.073,0,33.854,0,34.375v31.25c0,9.505,3.353,17.611,10.059,24.316
		C16.765,96.646,24.87,100,34.375,100h31.25c9.505,0,17.611-3.354,24.316-10.059C96.646,83.236,100,75.13,100,65.625v-31.25
		C100,33.854,99.937,33.073,99.805,32.031z"/>
</g>
</g></g><g transform="translate(80,48) scale(0.08,0.08)"><g transform="" style="fill: rgb(253, 8, 68);">
<rect width="100" height="100"/>
</g></g><g transform="translate(96,48) scale(0.08,0.08)"><g transform="" style="fill: rgb(253, 8, 68);">
<g>
	<path d="M99.805,32.031H100V0H0v32.031h0.195C0.065,33.073,0,33.854,0,34.375v31.25c0,9.505,3.353,17.611,10.059,24.316
		C16.765,96.646,24.87,100,34.375,100h31.25c9.505,0,17.611-3.354,24.316-10.059C96.646,83.236,100,75.13,100,65.625v-31.25
		C100,33.854,99.937,33.073,99.805,32.031z"/>
</g>
</g></g><g transform="translate(112,48) scale(0.08,0.08)"><g transform="" style="fill: rgb(253, 8, 68);">
<g>
	<path d="M99.805,32.031H100V0H0v32.031h0.195C0.065,33.073,0,33.854,0,34.375v31.25c0,9.505,3.353,17.611,10.059,24.316
		C16.765,96.646,24.87,100,34.375,100h31.25c9.505,0,17.611-3.354,24.316-10.059C96.646,83.236,100,75.13,100,65.625v-31.25
		C100,33.854,99.937,33.073,99.805,32.031z"/>
</g>
</g></g><g transform="translate(128,48) scale(0.08,0.08)"><g transform="" style="fill: rgb(253, 8, 68);">
<g>
	<path d="M99.805,32.031H100V0H0v32.031h0.195C0.065,33.073,0,33.854,0,34.375v31.25c0,9.505,3.353,17.611,10.059,24.316
		C16.765,96.646,24.87,100,34.375,100h31.25c9.505,0,17.611-3.354,24.316-10.059C96.646,83.236,100,75.13,100,65.625v-31.25
		C100,33.854,99.937,33.073,99.805,32.031z"/>
</g>
</g></g><g transform="translate(80,56) scale(0.08,0.08)"><g transform="" style="fill: rgb(253, 8, 68);">
<rect width="100" height="100"/>
</g></g><g transform="translate(88,56) scale(0.08,0.08)"><g transform="" style="fill: rgb(253, 8, 68);">
<g>
	<path d="M65.625,0H0v100h65.625c9.505,0,17.611-3.354,24.316-10.059C96.646,83.236,100,75.13,100,65.625v-31.25
		c0-9.505-3.354-17.611-10.059-24.316C83.236,3.354,75.13,0,65.625,0z"/>
</g>
</g></g><g transform="translate(0,64) scale(0.08,0.08)"><g transform="" style="fill: rgb(253, 8, 68);">
<g>
	<path d="M100,34.375c0-9.505-3.354-17.611-10.059-24.316C83.236,3.354,75.13,0,65.625,0h-31.25C24.87,0,16.764,3.353,10.059,10.059
		S0,24.87,0,34.375v31.25c0,0.521,0.065,1.303,0.195,2.344H0V100h100V67.969h-0.195c0.132-1.041,0.195-1.822,0.195-2.344V34.375z"/>
</g>
</g></g><g transform="translate(16,64) scale(0.08,0.08)"><g transform="" style="fill: rgb(253, 8, 68);">
<g>
	<path d="M100,65.625c0,9.507-3.355,17.611-10.059,24.316C83.236,96.645,75.132,100,65.625,100h-31.25
		c-9.504,0-17.61-3.355-24.315-10.059C3.354,83.236,0,75.132,0,65.625v-31.25c0-9.504,3.353-17.61,10.059-24.315
		C16.766,3.354,24.871,0,34.375,0h31.25c9.508,0,17.613,3.353,24.316,10.059C96.646,16.766,100,24.871,100,34.375V65.625z"/>
</g>
</g></g><g transform="translate(48,64) scale(0.08,0.08)"><g transform="" style="fill: rgb(253, 8, 68);">
<g>
	<path d="M100,34.375V0H34.375C24.87,0,16.764,3.353,10.059,10.059S0,24.87,0,34.375v31.25c0,9.505,3.353,17.611,10.059,24.316
		C16.765,96.646,24.87,100,34.375,100H100V34.375z"/>
</g>
</g></g><g transform="translate(56,64) scale(0.08,0.08)"><g transform="" style="fill: rgb(253, 8, 68);">
<g>
	<path d="M65.625,0H0v100h65.625c9.505,0,17.611-3.354,24.316-10.059C96.646,83.236,100,75.13,100,65.625v-31.25
		c0-9.505-3.354-17.611-10.059-24.316C83.236,3.354,75.13,0,65.625,0z"/>
</g>
</g></g><g transform="translate(72,64) scale(0.08,0.08)"><g transform="" style="fill: rgb(253, 8, 68);">
<g>
	<path d="M100,34.375V0H34.375C24.87,0,16.764,3.353,10.059,10.059S0,24.87,0,34.375v31.25c0,9.505,3.353,17.611,10.059,24.316
		C16.765,96.646,24.87,100,34.375,100H100V34.375z"/>
</g>
</g></g><g transform="translate(80,64) scale(0.08,0.08)"><g transform="" style="fill: rgb(253, 8, 68);">
<g>
	<path d="M100,0H0v100h65.625c9.505,0,17.611-3.354,24.316-10.059C96.646,83.236,100,75.13,100,65.625V0z"/>
</g>
</g></g><g transform="translate(96,64) scale(0.08,0.08)"><g transform="" style="fill: rgb(253, 8, 68);">
<g>
	<path d="M100,34.375c0-9.505-3.354-17.611-10.059-24.316C83.236,3.354,75.13,0,65.625,0h-31.25C24.87,0,16.764,3.353,10.059,10.059
		S0,24.87,0,34.375v31.25c0,0.521,0.065,1.303,0.195,2.344H0V100h100V67.969h-0.195c0.132-1.041,0.195-1.822,0.195-2.344V34.375z"/>
</g>
</g></g><g transform="translate(128,64) scale(0.08,0.08)"><g transform="" style="fill: rgb(253, 8, 68);">
<g>
	<path d="M100,34.375c0-9.505-3.354-17.611-10.059-24.316C83.236,3.354,75.13,0,65.625,0h-31.25C24.87,0,16.764,3.353,10.059,10.059
		S0,24.87,0,34.375v31.25c0,0.521,0.065,1.303,0.195,2.344H0V100h100V67.969h-0.195c0.132-1.041,0.195-1.822,0.195-2.344V34.375z"/>
</g>
</g></g><g transform="translate(152,64) scale(0.08,0.08)"><g transform="" style="fill: rgb(253, 8, 68);">
<g>
	<path d="M100,65.625c0,9.507-3.355,17.611-10.059,24.316C83.236,96.645,75.132,100,65.625,100h-31.25
		c-9.504,0-17.61-3.355-24.315-10.059C3.354,83.236,0,75.132,0,65.625v-31.25c0-9.504,3.353-17.61,10.059-24.315
		C16.766,3.354,24.871,0,34.375,0h31.25c9.508,0,17.613,3.353,24.316,10.059C96.646,16.766,100,24.871,100,34.375V65.625z"/>
</g>
</g></g><g transform="translate(176,64) scale(0.08,0.08)"><g transform="" style="fill: rgb(253, 8, 68);">
<g>
	<path d="M100,65.625c0,9.507-3.355,17.611-10.059,24.316C83.236,96.645,75.132,100,65.625,100h-31.25
		c-9.504,0-17.61-3.355-24.315-10.059C3.354,83.236,0,75.132,0,65.625v-31.25c0-9.504,3.353-17.61,10.059-24.315
		C16.766,3.354,24.871,0,34.375,0h31.25c9.508,0,17.613,3.353,24.316,10.059C96.646,16.766,100,24.871,100,34.375V65.625z"/>
</g>
</g></g><g transform="translate(192,64) scale(0.08,0.08)"><g transform="" style="fill: rgb(253, 8, 68);">
<g>
	<path d="M100,34.375c0-9.505-3.354-17.611-10.059-24.316C83.236,3.354,75.13,0,65.625,0h-31.25C24.87,0,16.764,3.353,10.059,10.059
		S0,24.87,0,34.375v31.25c0,0.521,0.065,1.303,0.195,2.344H0V100h100V67.969h-0.195c0.132-1.041,0.195-1.822,0.195-2.344V34.375z"/>
</g>
</g></g><g transform="translate(0,72) scale(0.08,0.08)"><g transform="" style="fill: rgb(253, 8, 68);">
<rect width="100" height="100"/>
</g></g><g transform="translate(40,72) scale(0.08,0.08)"><g transform="" style="fill: rgb(253, 8, 68);">
<g>
	<path d="M100,34.375c0-9.505-3.354-17.611-10.059-24.316C83.236,3.354,75.13,0,65.625,0h-31.25C24.87,0,16.764,3.353,10.059,10.059
		S0,24.87,0,34.375v31.25c0,0.521,0.065,1.303,0.195,2.344H0V100h100V67.969h-0.195c0.132-1.041,0.195-1.822,0.195-2.344V34.375z"/>
</g>
</g></g><g transform="translate(64,72) scale(0.08,0.08)"><g transform="" style="fill: rgb(253, 8, 68);">
<g>
	<path d="M100,65.625c0,9.507-3.355,17.611-10.059,24.316C83.236,96.645,75.132,100,65.625,100h-31.25
		c-9.504,0-17.61-3.355-24.315-10.059C3.354,83.236,0,75.132,0,65.625v-31.25c0-9.504,3.353-17.61,10.059-24.315
		C16.766,3.354,24.871,0,34.375,0h31.25c9.508,0,17.613,3.353,24.316,10.059C96.646,16.766,100,24.871,100,34.375V65.625z"/>
</g>
</g></g><g transform="translate(96,72) scale(0.08,0.08)"><g transform="" style="fill: rgb(253, 8, 68);">
<g>
	<path d="M100,0H0v65.625c0,9.505,3.353,17.611,10.059,24.316C16.765,96.646,24.87,100,34.375,100H100V0z"/>
</g>
</g></g><g transform="translate(104,72) scale(0.08,0.08)"><g transform="" style="fill: rgb(253, 8, 68);">
<g>
	<path d="M65.625,0H0v100h65.625c9.505,0,17.611-3.354,24.316-10.059C96.646,83.236,100,75.13,100,65.625v-31.25
		c0-9.505-3.354-17.611-10.059-24.316C83.236,3.354,75.13,0,65.625,0z"/>
</g>
</g></g><g transform="translate(120,72) scale(0.08,0.08)"><g transform="" style="fill: rgb(253, 8, 68);">
<g>
	<path d="M100,34.375V0H34.375C24.87,0,16.764,3.353,10.059,10.059S0,24.87,0,34.375V100h100V34.375z"/>
</g>
</g></g><g transform="translate(128,72) scale(0.08,0.08)"><g transform="" style="fill: rgb(253, 8, 68);">
<rect width="100" height="100"/>
</g></g><g transform="translate(144,72) scale(0.08,0.08)"><g transform="" style="fill: rgb(253, 8, 68);">
<g>
	<path d="M100,65.625c0,9.507-3.355,17.611-10.059,24.316C83.236,96.645,75.132,100,65.625,100h-31.25
		c-9.504,0-17.61-3.355-24.315-10.059C3.354,83.236,0,75.132,0,65.625v-31.25c0-9.504,3.353-17.61,10.059-24.315
		C16.766,3.354,24.871,0,34.375,0h31.25c9.508,0,17.613,3.353,24.316,10.059C96.646,16.766,100,24.871,100,34.375V65.625z"/>
</g>
</g></g><g transform="translate(168,72) scale(0.08,0.08)"><g transform="" style="fill: rgb(253, 8, 68);">
<g>
	<path d="M100,34.375c0-9.505-3.354-17.611-10.059-24.316C83.236,3.354,75.13,0,65.625,0h-31.25C24.87,0,16.764,3.353,10.059,10.059
		S0,24.87,0,34.375v31.25c0,0.521,0.065,1.303,0.195,2.344H0V100h100V67.969h-0.195c0.132-1.041,0.195-1.822,0.195-2.344V34.375z"/>
</g>
</g></g><g transform="translate(184,72) scale(0.08,0.08)"><g transform="" style="fill: rgb(253, 8, 68);">
<g>
	<path d="M100,34.375V0H34.375C24.87,0,16.764,3.353,10.059,10.059S0,24.87,0,34.375v31.25c0,9.505,3.353,17.611,10.059,24.316
		C16.765,96.646,24.87,100,34.375,100H100V34.375z"/>
</g>
</g></g><g transform="translate(192,72) scale(0.08,0.08)"><g transform="" style="fill: rgb(253, 8, 68);">
<rect width="100" height="100"/>
</g></g><g transform="translate(0,80) scale(0.08,0.08)"><g transform="" style="fill: rgb(253, 8, 68);">
<rect width="100" height="100"/>
</g></g><g transform="translate(8,80) scale(0.08,0.08)"><g transform="" style="fill: rgb(253, 8, 68);">
<rect width="100" height="100"/>
</g></g><g transform="translate(16,80) scale(0.08,0.08)"><g transform="" style="fill: rgb(253, 8, 68);">
<rect width="100" height="100"/>
</g></g><g transform="translate(24,80) scale(0.08,0.08)"><g transform="" style="fill: rgb(253, 8, 68);">
<rect width="100" height="100"/>
</g></g><g transform="translate(32,80) scale(0.08,0.08)"><g transform="" style="fill: rgb(253, 8, 68);">
<rect width="100" height="100"/>
</g></g><g transform="translate(40,80) scale(0.08,0.08)"><g transform="" style="fill: rgb(253, 8, 68);">
<rect width="100" height="100"/>
</g></g><g transform="translate(48,80) scale(0.08,0.08)"><g transform="" style="fill: rgb(253, 8, 68);">
<rect width="100" height="100"/>
</g></g><g transform="translate(56,80) scale(0.08,0.08)"><g transform="" style="fill: rgb(253, 8, 68);">
<g>
	<path d="M100,34.375c0-9.505-3.354-17.611-10.059-24.316C83.236,3.354,75.13,0,65.625,0H0v100h100V34.375z"/>
</g>
</g></g><g transform="translate(120,80) scale(0.08,0.08)"><g transform="" style="fill: rgb(253, 8, 68);">
<g>
	<path d="M100,0H0v65.625c0,9.505,3.353,17.611,10.059,24.316C16.765,96.646,24.87,100,34.375,100H100V0z"/>
</g>
</g></g><g transform="translate(128,80) scale(0.08,0.08)"><g transform="" style="fill: rgb(253, 8, 68);">
<g>
	<path d="M100,0H0v100h65.625c9.505,0,17.611-3.354,24.316-10.059C96.646,83.236,100,75.13,100,65.625V0z"/>
</g>
</g></g><g transform="translate(152,80) scale(0.08,0.08)"><g transform="" style="fill: rgb(253, 8, 68);">
<g>
	<path d="M100,34.375V0H34.375C24.87,0,16.764,3.353,10.059,10.059S0,24.87,0,34.375V100h100V34.375z"/>
</g>
</g></g><g transform="translate(160,80) scale(0.08,0.08)"><g transform="" style="fill: rgb(253, 8, 68);">
<rect width="100" height="100"/>
</g></g><g transform="translate(168,80) scale(0.08,0.08)"><g transform="" style="fill: rgb(253, 8, 68);">
<rect width="100" height="100"/>
</g></g><g transform="translate(176,80) scale(0.08,0.08)"><g transform="" style="fill: rgb(253, 8, 68);">
<g>
	<path d="M65.625,0H0v100h65.625c9.505,0,17.611-3.354,24.316-10.059C96.646,83.236,100,75.13,100,65.625v-31.25
		c0-9.505-3.354-17.611-10.059-24.316C83.236,3.354,75.13,0,65.625,0z"/>
</g>
</g></g><g transform="translate(192,80) scale(0.08,0.08)"><g transform="" style="fill: rgb(253, 8, 68);">
<g>
	<path d="M99.805,32.031H100V0H0v32.031h0.195C0.065,33.073,0,33.854,0,34.375v31.25c0,9.505,3.353,17.611,10.059,24.316
		C16.765,96.646,24.87,100,34.375,100h31.25c9.505,0,17.611-3.354,24.316-10.059C96.646,83.236,100,75.13,100,65.625v-31.25
		C100,33.854,99.937,33.073,99.805,32.031z"/>
</g>
</g></g><g transform="translate(0,88) scale(0.08,0.08)"><g transform="" style="fill: rgb(253, 8, 68);">
<g>
	<path d="M99.805,32.031H100V0H0v32.031h0.195C0.065,33.073,0,33.854,0,34.375v31.25c0,9.505,3.353,17.611,10.059,24.316
		C16.765,96.646,24.87,100,34.375,100h31.25c9.505,0,17.611-3.354,24.316-10.059C96.646,83.236,100,75.13,100,65.625v-31.25
		C100,33.854,99.937,33.073,99.805,32.031z"/>
</g>
</g></g><g transform="translate(16,88) scale(0.08,0.08)"><g transform="" style="fill: rgb(253, 8, 68);">
<rect width="100" height="100"/>
</g></g><g transform="translate(24,88) scale(0.08,0.08)"><g transform="" style="fill: rgb(253, 8, 68);">
<rect width="100" height="100"/>
</g></g><g transform="translate(32,88) scale(0.08,0.08)"><g transform="" style="fill: rgb(253, 8, 68);">
<g>
	<path d="M100,0H0v100h65.625c9.505,0,17.611-3.354,24.316-10.059C96.646,83.236,100,75.13,100,65.625V0z"/>
</g>
</g></g><g transform="translate(56,88) scale(0.08,0.08)"><g transform="" style="fill: rgb(253, 8, 68);">
<rect width="100" height="100"/>
</g></g><g transform="translate(72,88) scale(0.08,0.08)"><g transform="" style="fill: rgb(253, 8, 68);">
<g>
	<path d="M100,34.375V0H34.375C24.87,0,16.764,3.353,10.059,10.059S0,24.87,0,34.375V100h100V34.375z"/>
</g>
</g></g><g transform="translate(80,88) scale(0.08,0.08)"><g transform="" style="fill: rgb(253, 8, 68);">
<g>
	<path d="M100,34.375c0-9.505-3.354-17.611-10.059-24.316C83.236,3.354,75.13,0,65.625,0H0v100h100V34.375z"/>
</g>
</g></g><g transform="translate(112,88) scale(0.08,0.08)"><g transform="" style="fill: rgb(253, 8, 68);">
<g>
	<path d="M100,65.625c0,9.507-3.355,17.611-10.059,24.316C83.236,96.645,75.132,100,65.625,100h-31.25
		c-9.504,0-17.61-3.355-24.315-10.059C3.354,83.236,0,75.132,0,65.625v-31.25c0-9.504,3.353-17.61,10.059-24.315
		C16.766,3.354,24.871,0,34.375,0h31.25c9.508,0,17.613,3.353,24.316,10.059C96.646,16.766,100,24.871,100,34.375V65.625z"/>
</g>
</g></g><g transform="translate(144,88) scale(0.08,0.08)"><g transform="" style="fill: rgb(253, 8, 68);">
<g>
	<path d="M100,34.375V0H34.375C24.87,0,16.764,3.353,10.059,10.059S0,24.87,0,34.375V100h100V34.375z"/>
</g>
</g></g><g transform="translate(152,88) scale(0.08,0.08)"><g transform="" style="fill: rgb(253, 8, 68);">
<g>
	<path d="M100,0H0v100h65.625c9.505,0,17.611-3.354,24.316-10.059C96.646,83.236,100,75.13,100,65.625V0z"/>
</g>
</g></g><g transform="translate(168,88) scale(0.08,0.08)"><g transform="" style="fill: rgb(253, 8, 68);">
<g>
	<path d="M99.805,32.031H100V0H0v32.031h0.195C0.065,33.073,0,33.854,0,34.375v31.25c0,9.505,3.353,17.611,10.059,24.316
		C16.765,96.646,24.87,100,34.375,100h31.25c9.505,0,17.611-3.354,24.316-10.059C96.646,83.236,100,75.13,100,65.625v-31.25
		C100,33.854,99.937,33.073,99.805,32.031z"/>
</g>
</g></g><g transform="translate(16,96) scale(0.08,0.08)"><g transform="" style="fill: rgb(253, 8, 68);">
<g>
	<path d="M100,0H0v65.625c0,9.505,3.353,17.611,10.059,24.316C16.765,96.646,24.87,100,34.375,100H100V0z"/>
</g>
</g></g><g transform="translate(24,96) scale(0.08,0.08)"><g transform="" style="fill: rgb(253, 8, 68);">
<g>
	<path d="M100,0H0v100h65.625c9.505,0,17.611-3.354,24.316-10.059C96.646,83.236,100,75.13,100,65.625V0z"/>
</g>
</g></g><g transform="translate(40,96) scale(0.08,0.08)"><g transform="" style="fill: rgb(253, 8, 68);">
<g>
	<path d="M100,34.375V0H34.375C24.87,0,16.764,3.353,10.059,10.059S0,24.87,0,34.375V100h100V34.375z"/>
</g>
</g></g><g transform="translate(48,96) scale(0.08,0.08)"><g transform="" style="fill: rgb(253, 8, 68);">
<rect width="100" height="100"/>
</g></g><g transform="translate(56,96) scale(0.08,0.08)"><g transform="" style="fill: rgb(253, 8, 68);">
<rect width="100" height="100"/>
</g></g><g transform="translate(72,96) scale(0.08,0.08)"><g transform="" style="fill: rgb(253, 8, 68);">
<g>
	<path d="M100,0H0v65.625c0,9.505,3.353,17.611,10.059,24.316C16.765,96.646,24.87,100,34.375,100H100V0z"/>
</g>
</g></g><g transform="translate(80,96) scale(0.08,0.08)"><g transform="" style="fill: rgb(253, 8, 68);">
<rect width="100" height="100"/>
</g></g><g transform="translate(96,96) scale(0.08,0.08)"><g transform="" style="fill: rgb(253, 8, 68);">
<g>
	<path d="M100,65.625c0,9.507-3.355,17.611-10.059,24.316C83.236,96.645,75.132,100,65.625,100h-31.25
		c-9.504,0-17.61-3.355-24.315-10.059C3.354,83.236,0,75.132,0,65.625v-31.25c0-9.504,3.353-17.61,10.059-24.315
		C16.766,3.354,24.871,0,34.375,0h31.25c9.508,0,17.613,3.353,24.316,10.059C96.646,16.766,100,24.871,100,34.375V65.625z"/>
</g>
</g></g><g transform="translate(120,96) scale(0.08,0.08)"><g transform="" style="fill: rgb(253, 8, 68);">
<g>
	<path d="M100,34.375c0-9.505-3.354-17.611-10.059-24.316C83.236,3.354,75.13,0,65.625,0h-31.25C24.87,0,16.764,3.353,10.059,10.059
		S0,24.87,0,34.375v31.25c0,0.521,0.065,1.303,0.195,2.344H0V100h100V67.969h-0.195c0.132-1.041,0.195-1.822,0.195-2.344V34.375z"/>
</g>
</g></g><g transform="translate(144,96) scale(0.08,0.08)"><g transform="" style="fill: rgb(253, 8, 68);">
<rect width="100" height="100"/>
</g></g><g transform="translate(192,96) scale(0.08,0.08)"><g transform="" style="fill: rgb(253, 8, 68);">
<g>
	<path d="M100,34.375c0-9.505-3.354-17.611-10.059-24.316C83.236,3.354,75.13,0,65.625,0h-31.25C24.87,0,16.764,3.353,10.059,10.059
		S0,24.87,0,34.375v31.25c0,0.521,0.065,1.303,0.195,2.344H0V100h100V67.969h-0.195c0.132-1.041,0.195-1.822,0.195-2.344V34.375z"/>
</g>
</g></g><g transform="translate(40,104) scale(0.08,0.08)"><g transform="" style="fill: rgb(253, 8, 68);">
<g>
	<path d="M99.805,32.031H100V0H0v32.031h0.195C0.065,33.073,0,33.854,0,34.375v31.25c0,9.505,3.353,17.611,10.059,24.316
		C16.765,96.646,24.87,100,34.375,100h31.25c9.505,0,17.611-3.354,24.316-10.059C96.646,83.236,100,75.13,100,65.625v-31.25
		C100,33.854,99.937,33.073,99.805,32.031z"/>
</g>
</g></g><g transform="translate(56,104) scale(0.08,0.08)"><g transform="" style="fill: rgb(253, 8, 68);">
<g>
	<path d="M100,0H0v65.625c0,9.505,3.353,17.611,10.059,24.316C16.765,96.646,24.87,100,34.375,100H100V0z"/>
</g>
</g></g><g transform="translate(64,104) scale(0.08,0.08)"><g transform="" style="fill: rgb(253, 8, 68);">
<g>
	<path d="M65.625,0H0v100h65.625c9.505,0,17.611-3.354,24.316-10.059C96.646,83.236,100,75.13,100,65.625v-31.25
		c0-9.505-3.354-17.611-10.059-24.316C83.236,3.354,75.13,0,65.625,0z"/>
</g>
</g></g><g transform="translate(80,104) scale(0.08,0.08)"><g transform="" style="fill: rgb(253, 8, 68);">
<rect width="100" height="100"/>
</g></g><g transform="translate(112,104) scale(0.08,0.08)"><g transform="" style="fill: rgb(253, 8, 68);">
<g>
	<path d="M100,34.375V0H34.375C24.87,0,16.764,3.353,10.059,10.059S0,24.87,0,34.375v31.25c0,9.505,3.353,17.611,10.059,24.316
		C16.765,96.646,24.87,100,34.375,100H100V34.375z"/>
</g>
</g></g><g transform="translate(120,104) scale(0.08,0.08)"><g transform="" style="fill: rgb(253, 8, 68);">
<rect width="100" height="100"/>
</g></g><g transform="translate(128,104) scale(0.08,0.08)"><g transform="" style="fill: rgb(253, 8, 68);">
<g>
	<path d="M65.625,0H0v100h65.625c9.505,0,17.611-3.354,24.316-10.059C96.646,83.236,100,75.13,100,65.625v-31.25
		c0-9.505-3.354-17.611-10.059-24.316C83.236,3.354,75.13,0,65.625,0z"/>
</g>
</g></g><g transform="translate(144,104) scale(0.08,0.08)"><g transform="" style="fill: rgb(253, 8, 68);">
<g>
	<path d="M100,0H0v65.625c0,9.505,3.353,17.611,10.059,24.316C16.765,96.646,24.87,100,34.375,100H100V0z"/>
</g>
</g></g><g transform="translate(152,104) scale(0.08,0.08)"><g transform="" style="fill: rgb(253, 8, 68);">
<g>
	<path d="M65.625,0H0v100h65.625c9.505,0,17.611-3.354,24.316-10.059C96.646,83.236,100,75.13,100,65.625v-31.25
		c0-9.505-3.354-17.611-10.059-24.316C83.236,3.354,75.13,0,65.625,0z"/>
</g>
</g></g><g transform="translate(184,104) scale(0.08,0.08)"><g transform="" style="fill: rgb(253, 8, 68);">
<g>
	<path d="M100,34.375V0H34.375C24.87,0,16.764,3.353,10.059,10.059S0,24.87,0,34.375v31.25c0,9.505,3.353,17.611,10.059,24.316
		C16.765,96.646,24.87,100,34.375,100H100V34.375z"/>
</g>
</g></g><g transform="translate(192,104) scale(0.08,0.08)"><g transform="" style="fill: rgb(253, 8, 68);">
<rect width="100" height="100"/>
</g></g><g transform="translate(0,112) scale(0.08,0.08)"><g transform="" style="fill: rgb(253, 8, 68);">
<g>
	<path d="M100,34.375V0H34.375C24.87,0,16.764,3.353,10.059,10.059S0,24.87,0,34.375v31.25c0,9.505,3.353,17.611,10.059,24.316
		C16.765,96.646,24.87,100,34.375,100H100V34.375z"/>
</g>
</g></g><g transform="translate(8,112) scale(0.08,0.08)"><g transform="" style="fill: rgb(253, 8, 68);">
<rect width="100" height="100"/>
</g></g><g transform="translate(16,112) scale(0.08,0.08)"><g transform="" style="fill: rgb(253, 8, 68);">
<g>
	<path d="M65.625,0H0v100h65.625c9.505,0,17.611-3.354,24.316-10.059C96.646,83.236,100,75.13,100,65.625v-31.25
		c0-9.505-3.354-17.611-10.059-24.316C83.236,3.354,75.13,0,65.625,0z"/>
</g>
</g></g><g transform="translate(48,112) scale(0.08,0.08)"><g transform="" style="fill: rgb(253, 8, 68);">
<g>
	<path d="M100,65.625c0,9.507-3.355,17.611-10.059,24.316C83.236,96.645,75.132,100,65.625,100h-31.25
		c-9.504,0-17.61-3.355-24.315-10.059C3.354,83.236,0,75.132,0,65.625v-31.25c0-9.504,3.353-17.61,10.059-24.315
		C16.766,3.354,24.871,0,34.375,0h31.25c9.508,0,17.613,3.353,24.316,10.059C96.646,16.766,100,24.871,100,34.375V65.625z"/>
</g>
</g></g><g transform="translate(80,112) scale(0.08,0.08)"><g transform="" style="fill: rgb(253, 8, 68);">
<rect width="100" height="100"/>
</g></g><g transform="translate(88,112) scale(0.08,0.08)"><g transform="" style="fill: rgb(253, 8, 68);">
<rect width="100" height="100"/>
</g></g><g transform="translate(96,112) scale(0.08,0.08)"><g transform="" style="fill: rgb(253, 8, 68);">
<g>
	<path d="M65.625,0H0v100h65.625c9.505,0,17.611-3.354,24.316-10.059C96.646,83.236,100,75.13,100,65.625v-31.25
		c0-9.505-3.354-17.611-10.059-24.316C83.236,3.354,75.13,0,65.625,0z"/>
</g>
</g></g><g transform="translate(120,112) scale(0.08,0.08)"><g transform="" style="fill: rgb(253, 8, 68);">
<rect width="100" height="100"/>
</g></g><g transform="translate(168,112) scale(0.08,0.08)"><g transform="" style="fill: rgb(253, 8, 68);">
<g>
	<path d="M100,34.375V0H34.375C24.87,0,16.764,3.353,10.059,10.059S0,24.87,0,34.375V100h100V34.375z"/>
</g>
</g></g><g transform="translate(176,112) scale(0.08,0.08)"><g transform="" style="fill: rgb(253, 8, 68);">
<g>
	<path d="M65.625,0H0v100h65.625c9.505,0,17.611-3.354,24.316-10.059C96.646,83.236,100,75.13,100,65.625v-31.25
		c0-9.505-3.354-17.611-10.059-24.316C83.236,3.354,75.13,0,65.625,0z"/>
</g>
</g></g><g transform="translate(192,112) scale(0.08,0.08)"><g transform="" style="fill: rgb(253, 8, 68);">
<g>
	<path d="M99.805,32.031H100V0H0v32.031h0.195C0.065,33.073,0,33.854,0,34.375v31.25c0,9.505,3.353,17.611,10.059,24.316
		C16.765,96.646,24.87,100,34.375,100h31.25c9.505,0,17.611-3.354,24.316-10.059C96.646,83.236,100,75.13,100,65.625v-31.25
		C100,33.854,99.937,33.073,99.805,32.031z"/>
</g>
</g></g><g transform="translate(40,120) scale(0.08,0.08)"><g transform="" style="fill: rgb(253, 8, 68);">
<g>
	<path d="M100,34.375c0-9.505-3.354-17.611-10.059-24.316C83.236,3.354,75.13,0,65.625,0h-31.25C24.87,0,16.764,3.353,10.059,10.059
		S0,24.87,0,34.375v31.25c0,0.521,0.065,1.303,0.195,2.344H0V100h100V67.969h-0.195c0.132-1.041,0.195-1.822,0.195-2.344V34.375z"/>
</g>
</g></g><g transform="translate(64,120) scale(0.08,0.08)"><g transform="" style="fill: rgb(253, 8, 68);">
<g>
	<path d="M100,65.625c0,9.507-3.355,17.611-10.059,24.316C83.236,96.645,75.132,100,65.625,100h-31.25
		c-9.504,0-17.61-3.355-24.315-10.059C3.354,83.236,0,75.132,0,65.625v-31.25c0-9.504,3.353-17.61,10.059-24.315
		C16.766,3.354,24.871,0,34.375,0h31.25c9.508,0,17.613,3.353,24.316,10.059C96.646,16.766,100,24.871,100,34.375V65.625z"/>
</g>
</g></g><g transform="translate(80,120) scale(0.08,0.08)"><g transform="" style="fill: rgb(253, 8, 68);">
<rect width="100" height="100"/>
</g></g><g transform="translate(120,120) scale(0.08,0.08)"><g transform="" style="fill: rgb(253, 8, 68);">
<rect width="100" height="100"/>
</g></g><g transform="translate(136,120) scale(0.08,0.08)"><g transform="" style="fill: rgb(253, 8, 68);">
<g>
	<path d="M100,34.375c0-9.505-3.354-17.611-10.059-24.316C83.236,3.354,75.13,0,65.625,0h-31.25C24.87,0,16.764,3.353,10.059,10.059
		S0,24.87,0,34.375v31.25c0,0.521,0.065,1.303,0.195,2.344H0V100h100V67.969h-0.195c0.132-1.041,0.195-1.822,0.195-2.344V34.375z"/>
</g>
</g></g><g transform="translate(152,120) scale(0.08,0.08)"><g transform="" style="fill: rgb(253, 8, 68);">
<g>
	<path d="M100,34.375V0H34.375C24.87,0,16.764,3.353,10.059,10.059S0,24.87,0,34.375V100h100V34.375z"/>
</g>
</g></g><g transform="translate(160,120) scale(0.08,0.08)"><g transform="" style="fill: rgb(253, 8, 68);">
<rect width="100" height="100"/>
</g></g><g transform="translate(168,120) scale(0.08,0.08)"><g transform="" style="fill: rgb(253, 8, 68);">
<g>
	<path d="M100,0H0v100h65.625c9.505,0,17.611-3.354,24.316-10.059C96.646,83.236,100,75.13,100,65.625V0z"/>
</g>
</g></g><g transform="translate(0,128) scale(0.08,0.08)"><g transform="" style="fill: rgb(253, 8, 68);">
<g>
	<path d="M100,34.375V0H34.375C24.87,0,16.764,3.353,10.059,10.059S0,24.87,0,34.375v31.25c0,9.505,3.353,17.611,10.059,24.316
		C16.765,96.646,24.87,100,34.375,100H100V34.375z"/>
</g>
</g></g><g transform="translate(8,128) scale(0.08,0.08)"><g transform="" style="fill: rgb(253, 8, 68);">
<g>
	<path d="M65.625,0H0v100h65.625c9.505,0,17.611-3.354,24.316-10.059C96.646,83.236,100,75.13,100,65.625v-31.25
		c0-9.505-3.354-17.611-10.059-24.316C83.236,3.354,75.13,0,65.625,0z"/>
</g>
</g></g><g transform="translate(24,128) scale(0.08,0.08)"><g transform="" style="fill: rgb(253, 8, 68);">
<g>
	<path d="M100,34.375V0H34.375C24.87,0,16.764,3.353,10.059,10.059S0,24.87,0,34.375v31.25c0,9.505,3.353,17.611,10.059,24.316
		C16.765,96.646,24.87,100,34.375,100H100V34.375z"/>
</g>
</g></g><g transform="translate(32,128) scale(0.08,0.08)"><g transform="" style="fill: rgb(253, 8, 68);">
<rect width="100" height="100"/>
</g></g><g transform="translate(40,128) scale(0.08,0.08)"><g transform="" style="fill: rgb(253, 8, 68);">
<rect width="100" height="100"/>
</g></g><g transform="translate(48,128) scale(0.08,0.08)"><g transform="" style="fill: rgb(253, 8, 68);">
<g>
	<path d="M65.625,0H0v100h65.625c9.505,0,17.611-3.354,24.316-10.059C96.646,83.236,100,75.13,100,65.625v-31.25
		c0-9.505-3.354-17.611-10.059-24.316C83.236,3.354,75.13,0,65.625,0z"/>
</g>
</g></g><g transform="translate(72,128) scale(0.08,0.08)"><g transform="" style="fill: rgb(253, 8, 68);">
<g>
	<path d="M100,34.375V0H34.375C24.87,0,16.764,3.353,10.059,10.059S0,24.87,0,34.375v31.25c0,9.505,3.353,17.611,10.059,24.316
		C16.765,96.646,24.87,100,34.375,100H100V34.375z"/>
</g>
</g></g><g transform="translate(80,128) scale(0.08,0.08)"><g transform="" style="fill: rgb(253, 8, 68);">
<rect width="100" height="100"/>
</g></g><g transform="translate(88,128) scale(0.08,0.08)"><g transform="" style="fill: rgb(253, 8, 68);">
<g>
	<path d="M100,34.375c0-9.505-3.354-17.611-10.059-24.316C83.236,3.354,75.13,0,65.625,0H0v100h100V34.375z"/>
</g>
</g></g><g transform="translate(120,128) scale(0.08,0.08)"><g transform="" style="fill: rgb(253, 8, 68);">
<rect width="100" height="100"/>
</g></g><g transform="translate(128,128) scale(0.08,0.08)"><g transform="" style="fill: rgb(253, 8, 68);">
<rect width="100" height="100"/>
</g></g><g transform="translate(136,128) scale(0.08,0.08)"><g transform="" style="fill: rgb(253, 8, 68);">
<rect width="100" height="100"/>
</g></g><g transform="translate(144,128) scale(0.08,0.08)"><g transform="" style="fill: rgb(253, 8, 68);">
<rect width="100" height="100"/>
</g></g><g transform="translate(152,128) scale(0.08,0.08)"><g transform="" style="fill: rgb(253, 8, 68);">
<rect width="100" height="100"/>
</g></g><g transform="translate(160,128) scale(0.08,0.08)"><g transform="" style="fill: rgb(253, 8, 68);">
<rect width="100" height="100"/>
</g></g><g transform="translate(184,128) scale(0.08,0.08)"><g transform="" style="fill: rgb(253, 8, 68);">
<g>
	<path d="M100,65.625c0,9.507-3.355,17.611-10.059,24.316C83.236,96.645,75.132,100,65.625,100h-31.25
		c-9.504,0-17.61-3.355-24.315-10.059C3.354,83.236,0,75.132,0,65.625v-31.25c0-9.504,3.353-17.61,10.059-24.315
		C16.766,3.354,24.871,0,34.375,0h31.25c9.508,0,17.613,3.353,24.316,10.059C96.646,16.766,100,24.871,100,34.375V65.625z"/>
</g>
</g></g><g transform="translate(64,136) scale(0.08,0.08)"><g transform="" style="fill: rgb(253, 8, 68);">
<g>
	<path d="M100,34.375c0-9.505-3.354-17.611-10.059-24.316C83.236,3.354,75.13,0,65.625,0h-31.25C24.87,0,16.764,3.353,10.059,10.059
		S0,24.87,0,34.375v31.25c0,0.521,0.065,1.303,0.195,2.344H0V100h100V67.969h-0.195c0.132-1.041,0.195-1.822,0.195-2.344V34.375z"/>
</g>
</g></g><g transform="translate(80,136) scale(0.08,0.08)"><g transform="" style="fill: rgb(253, 8, 68);">
<g>
	<path d="M100,0H0v65.625c0,9.505,3.353,17.611,10.059,24.316C16.765,96.646,24.87,100,34.375,100H100V0z"/>
</g>
</g></g><g transform="translate(88,136) scale(0.08,0.08)"><g transform="" style="fill: rgb(253, 8, 68);">
<rect width="100" height="100"/>
</g></g><g transform="translate(96,136) scale(0.08,0.08)"><g transform="" style="fill: rgb(253, 8, 68);">
<rect width="100" height="100"/>
</g></g><g transform="translate(104,136) scale(0.08,0.08)"><g transform="" style="fill: rgb(253, 8, 68);">
<g>
	<path d="M100,34.375c0-9.505-3.354-17.611-10.059-24.316C83.236,3.354,75.13,0,65.625,0H0v100h100V34.375z"/>
</g>
</g></g><g transform="translate(120,136) scale(0.08,0.08)"><g transform="" style="fill: rgb(253, 8, 68);">
<g>
	<path d="M100,0H0v65.625c0,9.505,3.353,17.611,10.059,24.316C16.765,96.646,24.87,100,34.375,100H100V0z"/>
</g>
</g></g><g transform="translate(128,136) scale(0.08,0.08)"><g transform="" style="fill: rgb(253, 8, 68);">
<rect width="100" height="100"/>
</g></g><g transform="translate(160,136) scale(0.08,0.08)"><g transform="" style="fill: rgb(253, 8, 68);">
<rect width="100" height="100"/>
</g></g><g transform="translate(192,136) scale(0.08,0.08)"><g transform="" style="fill: rgb(253, 8, 68);">
<g>
	<path d="M100,34.375c0-9.505-3.354-17.611-10.059-24.316C83.236,3.354,75.13,0,65.625,0h-31.25C24.87,0,16.764,3.353,10.059,10.059
		S0,24.87,0,34.375v31.25c0,0.521,0.065,1.303,0.195,2.344H0V100h100V67.969h-0.195c0.132-1.041,0.195-1.822,0.195-2.344V34.375z"/>
</g>
</g></g><g transform="translate(64,144) scale(0.08,0.08)"><g transform="" style="fill: rgb(253, 8, 68);">
<g>
	<path d="M100,0H0v65.625c0,9.505,3.353,17.611,10.059,24.316C16.765,96.646,24.87,100,34.375,100H100V0z"/>
</g>
</g></g><g transform="translate(72,144) scale(0.08,0.08)"><g transform="" style="fill: rgb(253, 8, 68);">
<g>
	<path d="M100,34.375c0-9.505-3.354-17.611-10.059-24.316C83.236,3.354,75.13,0,65.625,0H0v100h100V34.375z"/>
</g>
</g></g><g transform="translate(88,144) scale(0.08,0.08)"><g transform="" style="fill: rgb(253, 8, 68);">
<rect width="100" height="100"/>
</g></g><g transform="translate(104,144) scale(0.08,0.08)"><g transform="" style="fill: rgb(253, 8, 68);">
<g>
	<path d="M100,0H0v65.625c0,9.505,3.353,17.611,10.059,24.316C16.765,96.646,24.87,100,34.375,100H100V0z"/>
</g>
</g></g><g transform="translate(112,144) scale(0.08,0.08)"><g transform="" style="fill: rgb(253, 8, 68);">
<g>
	<path d="M100,34.375c0-9.505-3.354-17.611-10.059-24.316C83.236,3.354,75.13,0,65.625,0H0v100h100V34.375z"/>
</g>
</g></g><g transform="translate(128,144) scale(0.08,0.08)"><g transform="" style="fill: rgb(253, 8, 68);">
<rect width="100" height="100"/>
</g></g><g transform="translate(144,144) scale(0.08,0.08)"><g transform="" style="fill: rgb(253, 8, 68);">
<g>
	<path d="M100,65.625c0,9.507-3.355,17.611-10.059,24.316C83.236,96.645,75.132,100,65.625,100h-31.25
		c-9.504,0-17.61-3.355-24.315-10.059C3.354,83.236,0,75.132,0,65.625v-31.25c0-9.504,3.353-17.61,10.059-24.315
		C16.766,3.354,24.871,0,34.375,0h31.25c9.508,0,17.613,3.353,24.316,10.059C96.646,16.766,100,24.871,100,34.375V65.625z"/>
</g>
</g></g><g transform="translate(160,144) scale(0.08,0.08)"><g transform="" style="fill: rgb(253, 8, 68);">
<rect width="100" height="100"/>
</g></g><g transform="translate(192,144) scale(0.08,0.08)"><g transform="" style="fill: rgb(253, 8, 68);">
<rect width="100" height="100"/>
</g></g><g transform="translate(72,152) scale(0.08,0.08)"><g transform="" style="fill: rgb(253, 8, 68);">
<g>
	<path d="M99.805,32.031H100V0H0v32.031h0.195C0.065,33.073,0,33.854,0,34.375v31.25c0,9.505,3.353,17.611,10.059,24.316
		C16.765,96.646,24.87,100,34.375,100h31.25c9.505,0,17.611-3.354,24.316-10.059C96.646,83.236,100,75.13,100,65.625v-31.25
		C100,33.854,99.937,33.073,99.805,32.031z"/>
</g>
</g></g><g transform="translate(88,152) scale(0.08,0.08)"><g transform="" style="fill: rgb(253, 8, 68);">
<g>
	<path d="M100,0H0v65.625c0,9.505,3.353,17.611,10.059,24.316C16.765,96.646,24.87,100,34.375,100H100V0z"/>
</g>
</g></g><g transform="translate(96,152) scale(0.08,0.08)"><g transform="" style="fill: rgb(253, 8, 68);">
<g>
	<path d="M65.625,0H0v100h65.625c9.505,0,17.611-3.354,24.316-10.059C96.646,83.236,100,75.13,100,65.625v-31.25
		c0-9.505-3.354-17.611-10.059-24.316C83.236,3.354,75.13,0,65.625,0z"/>
</g>
</g></g><g transform="translate(112,152) scale(0.08,0.08)"><g transform="" style="fill: rgb(253, 8, 68);">
<g>
	<path d="M100,0H0v65.625c0,9.505,3.353,17.611,10.059,24.316C16.765,96.646,24.87,100,34.375,100H100V0z"/>
</g>
</g></g><g transform="translate(120,152) scale(0.08,0.08)"><g transform="" style="fill: rgb(253, 8, 68);">
<rect width="100" height="100"/>
</g></g><g transform="translate(128,152) scale(0.08,0.08)"><g transform="" style="fill: rgb(253, 8, 68);">
<rect width="100" height="100"/>
</g></g><g transform="translate(160,152) scale(0.08,0.08)"><g transform="" style="fill: rgb(253, 8, 68);">
<rect width="100" height="100"/>
</g></g><g transform="translate(192,152) scale(0.08,0.08)"><g transform="" style="fill: rgb(253, 8, 68);">
<g>
	<path d="M99.805,32.031H100V0H0v32.031h0.195C0.065,33.073,0,33.854,0,34.375v31.25c0,9.505,3.353,17.611,10.059,24.316
		C16.765,96.646,24.87,100,34.375,100h31.25c9.505,0,17.611-3.354,24.316-10.059C96.646,83.236,100,75.13,100,65.625v-31.25
		C100,33.854,99.937,33.073,99.805,32.031z"/>
</g>
</g></g><g transform="translate(120,160) scale(0.08,0.08)"><g transform="" style="fill: rgb(253, 8, 68);">
<rect width="100" height="100"/>
</g></g><g transform="translate(128,160) scale(0.08,0.08)"><g transform="" style="fill: rgb(253, 8, 68);">
<rect width="100" height="100"/>
</g></g><g transform="translate(136,160) scale(0.08,0.08)"><g transform="" style="fill: rgb(253, 8, 68);">
<rect width="100" height="100"/>
</g></g><g transform="translate(144,160) scale(0.08,0.08)"><g transform="" style="fill: rgb(253, 8, 68);">
<rect width="100" height="100"/>
</g></g><g transform="translate(152,160) scale(0.08,0.08)"><g transform="" style="fill: rgb(253, 8, 68);">
<rect width="100" height="100"/>
</g></g><g transform="translate(160,160) scale(0.08,0.08)"><g transform="" style="fill: rgb(253, 8, 68);">
<rect width="100" height="100"/>
</g></g><g transform="translate(184,160) scale(0.08,0.08)"><g transform="" style="fill: rgb(253, 8, 68);">
<g>
	<path d="M100,34.375c0-9.505-3.354-17.611-10.059-24.316C83.236,3.354,75.13,0,65.625,0h-31.25C24.87,0,16.764,3.353,10.059,10.059
		S0,24.87,0,34.375v31.25c0,0.521,0.065,1.303,0.195,2.344H0V100h100V67.969h-0.195c0.132-1.041,0.195-1.822,0.195-2.344V34.375z"/>
</g>
</g></g><g transform="translate(72,168) scale(0.08,0.08)"><g transform="" style="fill: rgb(253, 8, 68);">
<g>
	<path d="M100,34.375V0H34.375C24.87,0,16.764,3.353,10.059,10.059S0,24.87,0,34.375V100h100V34.375z"/>
</g>
</g></g><g transform="translate(80,168) scale(0.08,0.08)"><g transform="" style="fill: rgb(253, 8, 68);">
<g>
	<path d="M65.625,0H0v100h65.625c9.505,0,17.611-3.354,24.316-10.059C96.646,83.236,100,75.13,100,65.625v-31.25
		c0-9.505-3.354-17.611-10.059-24.316C83.236,3.354,75.13,0,65.625,0z"/>
</g>
</g></g><g transform="translate(96,168) scale(0.08,0.08)"><g transform="" style="fill: rgb(253, 8, 68);">
<g>
	<path d="M100,34.375c0-9.505-3.354-17.611-10.059-24.316C83.236,3.354,75.13,0,65.625,0h-31.25C24.87,0,16.764,3.353,10.059,10.059
		S0,24.87,0,34.375v31.25c0,0.521,0.065,1.303,0.195,2.344H0V100h100V67.969h-0.195c0.132-1.041,0.195-1.822,0.195-2.344V34.375z"/>
</g>
</g></g><g transform="translate(120,168) scale(0.08,0.08)"><g transform="" style="fill: rgb(253, 8, 68);">
<g>
	<path d="M100,0H0v65.625c0,9.505,3.353,17.611,10.059,24.316C16.765,96.646,24.87,100,34.375,100H100V0z"/>
</g>
</g></g><g transform="translate(128,168) scale(0.08,0.08)"><g transform="" style="fill: rgb(253, 8, 68);">
<rect width="100" height="100"/>
</g></g><g transform="translate(136,168) scale(0.08,0.08)"><g transform="" style="fill: rgb(253, 8, 68);">
<rect width="100" height="100"/>
</g></g><g transform="translate(160,168) scale(0.08,0.08)"><g transform="" style="fill: rgb(253, 8, 68);">
<rect width="100" height="100"/>
</g></g><g transform="translate(176,168) scale(0.08,0.08)"><g transform="" style="fill: rgb(253, 8, 68);">
<g>
	<path d="M100,34.375V0H34.375C24.87,0,16.764,3.353,10.059,10.059S0,24.87,0,34.375v31.25c0,9.505,3.353,17.611,10.059,24.316
		C16.765,96.646,24.87,100,34.375,100H100V34.375z"/>
</g>
</g></g><g transform="translate(184,168) scale(0.08,0.08)"><g transform="" style="fill: rgb(253, 8, 68);">
<rect width="100" height="100"/>
</g></g><g transform="translate(64,176) scale(0.08,0.08)"><g transform="" style="fill: rgb(253, 8, 68);">
<g>
	<path d="M100,34.375V0H34.375C24.87,0,16.764,3.353,10.059,10.059S0,24.87,0,34.375v31.25c0,9.505,3.353,17.611,10.059,24.316
		C16.765,96.646,24.87,100,34.375,100H100V34.375z"/>
</g>
</g></g><g transform="translate(72,176) scale(0.08,0.08)"><g transform="" style="fill: rgb(253, 8, 68);">
<g>
	<path d="M100,0H0v100h65.625c9.505,0,17.611-3.354,24.316-10.059C96.646,83.236,100,75.13,100,65.625V0z"/>
</g>
</g></g><g transform="translate(88,176) scale(0.08,0.08)"><g transform="" style="fill: rgb(253, 8, 68);">
<g>
	<path d="M100,34.375V0H34.375C24.87,0,16.764,3.353,10.059,10.059S0,24.87,0,34.375v31.25c0,9.505,3.353,17.611,10.059,24.316
		C16.765,96.646,24.87,100,34.375,100H100V34.375z"/>
</g>
</g></g><g transform="translate(96,176) scale(0.08,0.08)"><g transform="" style="fill: rgb(253, 8, 68);">
<g>
	<path d="M100,0H0v100h65.625c9.505,0,17.611-3.354,24.316-10.059C96.646,83.236,100,75.13,100,65.625V0z"/>
</g>
</g></g><g transform="translate(112,176) scale(0.08,0.08)"><g transform="" style="fill: rgb(253, 8, 68);">
<g>
	<path d="M100,34.375c0-9.505-3.354-17.611-10.059-24.316C83.236,3.354,75.13,0,65.625,0h-31.25C24.87,0,16.764,3.353,10.059,10.059
		S0,24.87,0,34.375v31.25c0,0.521,0.065,1.303,0.195,2.344H0V100h100V67.969h-0.195c0.132-1.041,0.195-1.822,0.195-2.344V34.375z"/>
</g>
</g></g><g transform="translate(136,176) scale(0.08,0.08)"><g transform="" style="fill: rgb(253, 8, 68);">
<rect width="100" height="100"/>
</g></g><g transform="translate(152,176) scale(0.08,0.08)"><g transform="" style="fill: rgb(253, 8, 68);">
<g>
	<path d="M100,34.375V0H34.375C24.87,0,16.764,3.353,10.059,10.059S0,24.87,0,34.375V100h100V34.375z"/>
</g>
</g></g><g transform="translate(160,176) scale(0.08,0.08)"><g transform="" style="fill: rgb(253, 8, 68);">
<rect width="100" height="100"/>
</g></g><g transform="translate(168,176) scale(0.08,0.08)"><g transform="" style="fill: rgb(253, 8, 68);">
<g>
	<path d="M65.625,0H0v100h65.625c9.505,0,17.611-3.354,24.316-10.059C96.646,83.236,100,75.13,100,65.625v-31.25
		c0-9.505-3.354-17.611-10.059-24.316C83.236,3.354,75.13,0,65.625,0z"/>
</g>
</g></g><g transform="translate(184,176) scale(0.08,0.08)"><g transform="" style="fill: rgb(253, 8, 68);">
<g>
	<path d="M100,0H0v65.625c0,9.505,3.353,17.611,10.059,24.316C16.765,96.646,24.87,100,34.375,100H100V0z"/>
</g>
</g></g><g transform="translate(192,176) scale(0.08,0.08)"><g transform="" style="fill: rgb(253, 8, 68);">
<g>
	<path d="M65.625,0H0v100h65.625c9.505,0,17.611-3.354,24.316-10.059C96.646,83.236,100,75.13,100,65.625v-31.25
		c0-9.505-3.354-17.611-10.059-24.316C83.236,3.354,75.13,0,65.625,0z"/>
</g>
</g></g><g transform="translate(112,184) scale(0.08,0.08)"><g transform="" style="fill: rgb(253, 8, 68);">
<g>
	<path d="M99.805,32.031H100V0H0v32.031h0.195C0.065,33.073,0,33.854,0,34.375v31.25c0,9.505,3.353,17.611,10.059,24.316
		C16.765,96.646,24.87,100,34.375,100h31.25c9.505,0,17.611-3.354,24.316-10.059C96.646,83.236,100,75.13,100,65.625v-31.25
		C100,33.854,99.937,33.073,99.805,32.031z"/>
</g>
</g></g><g transform="translate(128,184) scale(0.08,0.08)"><g transform="" style="fill: rgb(253, 8, 68);">
<g>
	<path d="M100,34.375V0H34.375C24.87,0,16.764,3.353,10.059,10.059S0,24.87,0,34.375V100h100V34.375z"/>
</g>
</g></g><g transform="translate(136,184) scale(0.08,0.08)"><g transform="" style="fill: rgb(253, 8, 68);">
<g>
	<path d="M100,0H0v100h65.625c9.505,0,17.611-3.354,24.316-10.059C96.646,83.236,100,75.13,100,65.625V0z"/>
</g>
</g></g><g transform="translate(152,184) scale(0.08,0.08)"><g transform="" style="fill: rgb(253, 8, 68);">
<g>
	<path d="M100,0H0v65.625c0,9.505,3.353,17.611,10.059,24.316C16.765,96.646,24.87,100,34.375,100H100V0z"/>
</g>
</g></g><g transform="translate(160,184) scale(0.08,0.08)"><g transform="" style="fill: rgb(253, 8, 68);">
<g>
	<path d="M100,0H0v100h65.625c9.505,0,17.611-3.354,24.316-10.059C96.646,83.236,100,75.13,100,65.625V0z"/>
</g>
</g></g><g transform="translate(64,192) scale(0.08,0.08)"><g transform="" style="fill: rgb(253, 8, 68);">
<g>
	<path d="M100,34.375V0H34.375C24.87,0,16.764,3.353,10.059,10.059S0,24.87,0,34.375v31.25c0,9.505,3.353,17.611,10.059,24.316
		C16.765,96.646,24.87,100,34.375,100H100V34.375z"/>
</g>
</g></g><g transform="translate(72,192) scale(0.08,0.08)"><g transform="" style="fill: rgb(253, 8, 68);">
<rect width="100" height="100"/>
</g></g><g transform="translate(80,192) scale(0.08,0.08)"><g transform="" style="fill: rgb(253, 8, 68);">
<g>
	<path d="M65.625,0H0v100h65.625c9.505,0,17.611-3.354,24.316-10.059C96.646,83.236,100,75.13,100,65.625v-31.25
		c0-9.505-3.354-17.611-10.059-24.316C83.236,3.354,75.13,0,65.625,0z"/>
</g>
</g></g><g transform="translate(96,192) scale(0.08,0.08)"><g transform="" style="fill: rgb(253, 8, 68);">
<g>
	<path d="M100,65.625c0,9.507-3.355,17.611-10.059,24.316C83.236,96.645,75.132,100,65.625,100h-31.25
		c-9.504,0-17.61-3.355-24.315-10.059C3.354,83.236,0,75.132,0,65.625v-31.25c0-9.504,3.353-17.61,10.059-24.315
		C16.766,3.354,24.871,0,34.375,0h31.25c9.508,0,17.613,3.353,24.316,10.059C96.646,16.766,100,24.871,100,34.375V65.625z"/>
</g>
</g></g><g transform="translate(120,192) scale(0.08,0.08)"><g transform="" style="fill: rgb(253, 8, 68);">
<g>
	<path d="M100,34.375V0H34.375C24.87,0,16.764,3.353,10.059,10.059S0,24.87,0,34.375v31.25c0,9.505,3.353,17.611,10.059,24.316
		C16.765,96.646,24.87,100,34.375,100H100V34.375z"/>
</g>
</g></g><g transform="translate(128,192) scale(0.08,0.08)"><g transform="" style="fill: rgb(253, 8, 68);">
<g>
	<path d="M100,0H0v100h65.625c9.505,0,17.611-3.354,24.316-10.059C96.646,83.236,100,75.13,100,65.625V0z"/>
</g>
</g></g><g transform="translate(144,192) scale(0.08,0.08)"><g transform="" style="fill: rgb(253, 8, 68);">
<g>
	<path d="M100,65.625c0,9.507-3.355,17.611-10.059,24.316C83.236,96.645,75.132,100,65.625,100h-31.25
		c-9.504,0-17.61-3.355-24.315-10.059C3.354,83.236,0,75.132,0,65.625v-31.25c0-9.504,3.353-17.61,10.059-24.315
		C16.766,3.354,24.871,0,34.375,0h31.25c9.508,0,17.613,3.353,24.316,10.059C96.646,16.766,100,24.871,100,34.375V65.625z"/>
</g>
</g></g><g transform="translate(168,192) scale(0.08,0.08)"><g transform="" style="fill: rgb(253, 8, 68);">
<g>
	<path d="M100,65.625c0,9.507-3.355,17.611-10.059,24.316C83.236,96.645,75.132,100,65.625,100h-31.25
		c-9.504,0-17.61-3.355-24.315-10.059C3.354,83.236,0,75.132,0,65.625v-31.25c0-9.504,3.353-17.61,10.059-24.315
		C16.766,3.354,24.871,0,34.375,0h31.25c9.508,0,17.613,3.353,24.316,10.059C96.646,16.766,100,24.871,100,34.375V65.625z"/>
</g>
</g></g><g transform="translate(192,192) scale(0.08,0.08)"><g transform="" style="fill: rgb(253, 8, 68);">
<g>
	<path d="M100,65.625c0,9.507-3.355,17.611-10.059,24.316C83.236,96.645,75.132,100,65.625,100h-31.25
		c-9.504,0-17.61-3.355-24.315-10.059C3.354,83.236,0,75.132,0,65.625v-31.25c0-9.504,3.353-17.61,10.059-24.315
		C16.766,3.354,24.871,0,34.375,0h31.25c9.508,0,17.613,3.353,24.316,10.059C96.646,16.766,100,24.871,100,34.375V65.625z"/>
</g>
</g></g><g transform="translate(0,0) scale(0.56, 0.56)"><g transform="" style="fill: rgb(253, 8, 68);">
<g>
	<path style="fill:none;" d="M65.859,15.008H34.141c-4.082,0-7.869,1.258-10.979,3.398c-2.419,1.665-4.428,3.864-5.848,6.421
		C15.838,27.484,15,30.526,15,33.758v32.471c0,10.344,8.586,18.76,19.145,18.76L50,84.992l15.855-0.004
		C76.414,84.988,85,76.572,85,66.229V33.758C85,23.419,76.414,15.008,65.859,15.008z"/>
	<path d="M65.859,0.008H34.141h0C18.683,0.008,5.587,10.221,1.4,24.18c-0.433,1.444-0.771,2.928-1.006,4.445
		C0.135,30.299,0,32.013,0,33.758v32.471c0,18.619,15.32,33.76,34.141,33.76L50,99.992l15.859-0.004
		c18.82,0,34.141-15.141,34.141-33.76V33.758C100,15.148,84.68,0.008,65.859,0.008z M85,66.229c0,10.344-8.586,18.76-19.145,18.76
		L50,84.992l-15.855-0.004C23.586,84.988,15,76.572,15,66.229V33.758c0-3.231,0.838-6.273,2.313-8.931
		c1.42-2.557,3.429-4.756,5.848-6.421c3.11-2.141,6.897-3.398,10.979-3.398h31.719C76.414,15.008,85,23.419,85,33.758V66.229z"/>
</g>
</g></g><g transform="translate(144,0) scale(0.56, 0.56)"><g transform="" style="fill: rgb(253, 8, 68);">
<g>
	<path style="fill:none;" d="M65.859,15.008H34.141c-4.082,0-7.869,1.258-10.979,3.398c-2.419,1.665-4.428,3.864-5.848,6.421
		C15.838,27.484,15,30.526,15,33.758v32.471c0,10.344,8.586,18.76,19.145,18.76L50,84.992l15.855-0.004
		C76.414,84.988,85,76.572,85,66.229V33.758C85,23.419,76.414,15.008,65.859,15.008z"/>
	<path d="M65.859,0.008H34.141h0C18.683,0.008,5.587,10.221,1.4,24.18c-0.433,1.444-0.771,2.928-1.006,4.445
		C0.135,30.299,0,32.013,0,33.758v32.471c0,18.619,15.32,33.76,34.141,33.76L50,99.992l15.859-0.004
		c18.82,0,34.141-15.141,34.141-33.76V33.758C100,15.148,84.68,0.008,65.859,0.008z M85,66.229c0,10.344-8.586,18.76-19.145,18.76
		L50,84.992l-15.855-0.004C23.586,84.988,15,76.572,15,66.229V33.758c0-3.231,0.838-6.273,2.313-8.931
		c1.42-2.557,3.429-4.756,5.848-6.421c3.11-2.141,6.897-3.398,10.979-3.398h31.719C76.414,15.008,85,23.419,85,33.758V66.229z"/>
</g>
</g></g><g transform="translate(0,144) scale(0.56, 0.56)"><g transform="" style="fill: rgb(253, 8, 68);">
<g>
	<path style="fill:none;" d="M65.859,15.008H34.141c-4.082,0-7.869,1.258-10.979,3.398c-2.419,1.665-4.428,3.864-5.848,6.421
		C15.838,27.484,15,30.526,15,33.758v32.471c0,10.344,8.586,18.76,19.145,18.76L50,84.992l15.855-0.004
		C76.414,84.988,85,76.572,85,66.229V33.758C85,23.419,76.414,15.008,65.859,15.008z"/>
	<path d="M65.859,0.008H34.141h0C18.683,0.008,5.587,10.221,1.4,24.18c-0.433,1.444-0.771,2.928-1.006,4.445
		C0.135,30.299,0,32.013,0,33.758v32.471c0,18.619,15.32,33.76,34.141,33.76L50,99.992l15.859-0.004
		c18.82,0,34.141-15.141,34.141-33.76V33.758C100,15.148,84.68,0.008,65.859,0.008z M85,66.229c0,10.344-8.586,18.76-19.145,18.76
		L50,84.992l-15.855-0.004C23.586,84.988,15,76.572,15,66.229V33.758c0-3.231,0.838-6.273,2.313-8.931
		c1.42-2.557,3.429-4.756,5.848-6.421c3.11-2.141,6.897-3.398,10.979-3.398h31.719C76.414,15.008,85,23.419,85,33.758V66.229z"/>
</g>
</g></g><g transform="translate(16,16) scale(0.24, 0.24)"><g transform="" style="fill: rgb(253, 8, 68);">
<g>
	<g id="XMLID_1_">
		<g>
			<path d="M27.351,100c-15.09,0-27.365-12.032-27.365-26.808V26.794c0-4.616,1.2-8.96,3.301-12.761
				c2.029-3.658,4.901-6.802,8.36-9.174C16.09,1.801,21.506,0,27.336,0h45.327c15.076,0,27.351,12.018,27.351,26.793v46.398
				c0,14.775-12.274,26.808-27.351,26.808H50H27.351z"/>
		</g>
		<g>
		</g>
	</g>
</g>
</g></g><g transform="translate(160,16) scale(0.24, 0.24)"><g transform="" style="fill: rgb(253, 8, 68);">
<g>
	<g id="XMLID_1_">
		<g>
			<path d="M27.351,100c-15.09,0-27.365-12.032-27.365-26.808V26.794c0-4.616,1.2-8.96,3.301-12.761
				c2.029-3.658,4.901-6.802,8.36-9.174C16.09,1.801,21.506,0,27.336,0h45.327c15.076,0,27.351,12.018,27.351,26.793v46.398
				c0,14.775-12.274,26.808-27.351,26.808H50H27.351z"/>
		</g>
		<g>
		</g>
	</g>
</g>
</g></g><g transform="translate(16,160) scale(0.24, 0.24)"><g transform="" style="fill: rgb(253, 8, 68);">
<g>
	<g id="XMLID_1_">
		<g>
			<path d="M27.351,100c-15.09,0-27.365-12.032-27.365-26.808V26.794c0-4.616,1.2-8.96,3.301-12.761
				c2.029-3.658,4.901-6.802,8.36-9.174C16.09,1.801,21.506,0,27.336,0h45.327c15.076,0,27.351,12.018,27.351,26.793v46.398
				c0,14.775-12.274,26.808-27.351,26.808H50H27.351z"/>
		</g>
		<g>
		</g>
	</g>
</g>
</g></g></g></svg>